<svg xmlns="http://www.w3.org/2000/svg" xmlns:xlink="http://www.w3.org/1999/xlink" viewBox="0,0,256,256" width="50px" height="50px"><g fill="#ffffff" fill-rule="nonzero" stroke="none" stroke-width="1" stroke-linecap="butt" stroke-linejoin="miter" stroke-miterlimit="10" stroke-dasharray="" stroke-dashoffset="0" font-family="none" font-weight="none" font-size="none" text-anchor="none" style="mix-blend-mode: normal"><g transform="scale(5.12,5.12)"><path d="M6,4c-0.52222,0 -1.05461,0.19133 -1.43164,0.56836c-0.37703,0.37703 -0.56836,0.90942 -0.56836,1.43164v38c0,0.52222 0.19133,1.05461 0.56836,1.43164c0.37703,0.37703 0.90942,0.56836 1.43164,0.56836h38c0.52222,0 1.05461,-0.19133 1.43164,-0.56836c0.37703,-0.37703 0.56836,-0.90942 0.56836,-1.43164v-38c0,-0.52222 -0.19133,-1.05461 -0.56836,-1.43164c-0.37703,-0.37703 -0.90942,-0.56836 -1.43164,-0.56836zM6,6h38v38h-38zM17.90039,14l-4.90039,22h2.40039l1.40039,-6.40039h4.79883l1.40039,6.40039h2.40039l-4.80078,-22zM19.19922,16.5h0.10156c0.3,1.6 0.59844,3.40039 0.89844,4.90039l1.10156,5.59961h-4.10156l1.10156,-5.5c0.3,-1.5 0.59844,-3.4 0.89844,-5zM32.5,20c-4.3,0 -5.5,4.5 -5.5,7c0,0.6 -0.29961,4.69961 1.90039,7.09961c1.1,1.3 2.6,1.90039 4.5,1.90039c2,0 4,-0.9 4,-1l-0.90039,-1.80078c0,0 -1.59961,0.80078 -3.09961,0.80078c-1.3,0 -2.3,-0.39922 -3,-1.19922c-1.2,-1.3 -1.40039,-3.50117 -1.40039,-4.70117h9v-1c0,-2.5 -1.2,-7.09961 -5.5,-7.09961zM32.5,22c2.5,0 3.20039,2.59961 3.40039,4.09961h-6.80078c0.2,-1.5 0.90039,-4.09961 3.40039,-4.09961z"></path></g></g></svg>