<svg xmlns="http://www.w3.org/2000/svg" xmlns:xlink="http://www.w3.org/1999/xlink" viewBox="0,0,256,256" width="24px" height="24px"><g fill="#ffffff" fill-rule="nonzero" stroke="none" stroke-width="1" stroke-linecap="butt" stroke-linejoin="miter" stroke-miterlimit="10" stroke-dasharray="" stroke-dashoffset="0" font-family="none" font-weight="none" font-size="none" text-anchor="none" style="mix-blend-mode: normal"><g transform="scale(10.66667,10.66667)"><path d="M12,2c-5.523,0 -10,4.477 -10,10c0,3.056 1.37416,5.78709 3.53516,7.62109l4.04883,-7.03906l-0.58398,-0.58203v-5h2v-2h2v2h2v5l-0.58203,0.58203l1.45898,2.53711c0.692,-0.858 1.12305,-1.93314 1.12305,-3.11914h2c0,1.937 -0.79041,3.69194 -2.06641,4.96094l1.53125,2.66016c2.161,-1.834 3.53516,-4.56509 3.53516,-7.62109c0,-5.523 -4.477,-10 -10,-10zM18.46484,19.62109c-0.509,0.433 -1.06039,0.81858 -1.65039,1.14258l1.28125,2.22656l1.73242,1.00977v-2.00586zM16.81445,20.76367l-1.49609,-2.60156c-0.988,0.534 -2.11836,0.83789 -3.31836,0.83789c-1.177,0 -2.30536,-0.28794 -3.31836,-0.83594l-1.49609,2.59961c1.428,0.786 3.06845,1.23633 4.81445,1.23633c1.746,0 3.38645,-0.45033 4.81445,-1.23633zM7.18555,20.76367c-0.59,-0.324 -1.14139,-0.70958 -1.65039,-1.14258l-1.36328,2.37305v2.00586l1.73242,-1.00977zM12,9c-0.82843,0 -1.5,0.67157 -1.5,1.5c0,0.82843 0.67157,1.5 1.5,1.5c0.82843,0 1.5,-0.67157 1.5,-1.5c0,-0.82843 -0.67157,-1.5 -1.5,-1.5zM11.04883,14.04883l-1.36914,2.37891c0.71,0.374 1.49831,0.57227 2.32031,0.57227c0.837,0 1.61459,-0.2268 2.30859,-0.5918l-1.35742,-2.35937l-0.95117,0.95117z"></path></g></g></svg>